<svg width="13" height="15" viewBox="0 0 13 15" fill="none" xmlns="http://www.w3.org/2000/svg">
<path d="M0.00732305 7.73401L4.5123 0.0333053C4.52513 0.00795318 4.5508 -0.00472288 4.57647 0.00161515L11.0965 1.09809C11.1478 1.10443 11.1671 1.17415 11.1286 1.21218L6.3605 6.01641C6.32199 6.05443 6.34124 6.11781 6.39258 6.13049L12.1361 7.09387C12.1939 7.10021 12.2067 7.17626 12.1618 7.20795L2.01223 14.9831C1.95447 15.0275 1.88388 14.9577 1.92238 14.8944L5.26955 8.79246C5.29522 8.75443 5.26955 8.70373 5.22463 8.69739L0.0586618 7.82908C0.00732306 7.82274 -0.011929 7.77204 0.00732305 7.73401Z" fill="#00E169"/>
<path d="M6.41515 0.316087L4.57778 0.00161099C4.55212 -0.00471074 4.52646 0.00793273 4.51363 0.0332197L0.0101939 7.71413C-0.0154667 7.75206 0.0101939 7.80263 0.0551 7.81528L1.83473 8.12343L6.41515 0.316087Z" fill="#00B856"/>
<path d="M2.02467 14.9829C1.96732 15.027 1.89721 14.9577 1.93545 14.8947L5.2595 8.82994C5.27862 8.79844 5.26587 8.77324 5.24038 8.74805L7.05668 9.05672L2.02467 14.9829Z" fill="#00B856"/>
</svg>
