<?xml version="1.0" ?>
<svg enable-background="new 0 0 32 32" version="1.1" viewBox="0 0 32 32"
     xml:space="preserve" xmlns="http://www.w3.org/2000/svg"
     xmlns:xlink="http://www.w3.org/1999/xlink">
    <g id="_x33_0"/><g id="_x32_9"/><g id="_x32_8"/>
    <g id="_x32_7"/><g id="_x32_6"/><g id="_x32_5"/>
    <g id="_x32_4"/><g id="_x32_3"/><g id="_x32_2"/>
    <g id="_x32_1"/><g id="_x32_0"/><g id="_x31_8">
    <path d="M25.784,21.017C26.581,19.467,27,17.741,27,16c0-6.065-4.935-11-11-11S5,9.935,5,16s4.935,11,11,11   c1.742,0,3.468-0.419,5.018-1.215l4.74,1.185C25.838,26.99,25.919,27,26,27c0.262,0,0.518-0.103,0.707-0.293   c0.248-0.249,0.349-0.609,0.263-0.95L25.784,21.017z M23.751,21.127l0.874,3.498l-3.498-0.875   c-0.247-0.061-0.509-0.026-0.731,0.098C19.055,24.602,17.534,25,16,25c-4.963,0-9-4.038-9-9s4.037-9,9-9s9,4.038,9,9   c0,1.534-0.398,3.054-1.151,4.395C23.724,20.618,23.688,20.88,23.751,21.127z" fill="#231F20"/></g>
    <g id="_x31_7"/><g id="_x31_6"/><g id="_x31_5"/>
    <g id="_x31_4"/><g id="_x31_3"/><g id="_x31_2"/>
    <g id="_x31_1"/><g id="_x31_0"/><g id="_x39_"/><g id="_x38_"/>
    <g id="_x37_"/><g id="_x36_"/><g id="_x35_"/><g id="_x34_"/>
    <g id="_x33_"/><g id="_x32_"/><g id="_x31_"/><g id="Guides"/></svg>